<?xml version="1.0" standalone="no"?><!DOCTYPE svg PUBLIC "-//W3C//DTD SVG 1.1//EN" "http://www.w3.org/Graphics/SVG/1.1/DTD/svg11.dtd"><svg t="1557403694055" class="icon" style="" viewBox="0 0 1024 1024" version="1.1" xmlns="http://www.w3.org/2000/svg" p-id="1886" xmlns:xlink="http://www.w3.org/1999/xlink" width="200" height="200"><defs><style type="text/css"></style></defs><path d="M150.63939169 814.8941962c36.15546597 60.87384913 33.82649916 94.86071722 19.3497344 119.06519729s-20.36660753 53.59173134 6.42196815 58.54123991c26.78857572 4.94950861 96.69035785-8.45571312 121.88984337-46.83809366 25.19948551-38.37873524 10.71178613-82.74571996 60.09023865-115.81776553" fill="#54C6D5" p-id="1887"></path><path d="M160.03908278 809.31050998c34.26386467 57.68837807 38.72862707 97.84208398 19.33151198 130.26537346-6.81559681 11.39334591-10.76281219 22.73202043-10.71178611 30.80868483 0.04373682 6.84475523 2.52942425 10.03022627 9.73864977 11.36054223 12.30087627 2.27429535 35.1021466-0.19681359 56.27787768-6.84839913 24.87510674-7.81424624 44.56744368-20.12605709 54.48832861-35.23699961 6.60784867-10.06667242 10.24890758-20.06045257 14.73553909-37.97781878 0.30251109-1.21004142 0.5175485-2.07019255 1.10070001-4.43560398 4.78549729-19.37160348 7.55182661-28.22458916 13.17560587-39.10767727 7.56640657-14.64442153 18.43855864-26.87240404 34.12901028-37.38008587a10.93411275 10.93411275 0 0 1 12.16966723 18.16885132c-22.59716604 15.13281162-29.65695871 28.79680759-38.24388085 63.56364083-0.59044227 2.38363673-0.80547964 3.26201016-1.11892532 4.50120996-5.03698079 20.11512252-9.38875796 32.05152852-17.67317046 44.66584898-13.13551435 20.00942646-36.96094561 34.90897694-66.21334108 44.1009213-24.32111062 7.6393003-50.59578321 10.48216878-66.80378329 7.48986744-17.85176173-3.2984578-27.52845082-15.69409699-27.63414687-32.73308832-0.07653909-12.6908596 5.1244545-27.64508146 13.81707268-42.16922851 14.71002605-24.58717412 11.16372863-56.46011286-19.36431278-107.86866492a10.93411275 10.93411275 0 1 1 18.79938356-11.16737396z" fill="#524F75" p-id="1888"></path><path d="M888.57171927 700.30105205c-27.72526445 103.20708895-129.521853 235.38957675-360.96786117 242.15779282H347.76321849c-98.82615489 0-177.90530149-29.73714169-227.16347951-82.90608738-10.06302852-10.85757365-27.59770072-37.46027033-33.41829356-54.9512057s-9.03522225-27.95488178-4.26065805-40.74779204c-11.82342074-8.29170178-31.53033613-24.48147807-39.25711015-46.75062145-8.66710661-24.98444666-5.64929223-47.86954534-4.8328765-59.99183181s1.85150975-27.72162055 4.8328765-44.09727593C67.31780795 483.04752286 188.45319772 388.46380366 324.69953 388.46380366h35.47390613c114.61136803 0 244.23162926 103.43670482 268.0060345 244.42115363 2.748107 16.32463074 14.81207821 80.11059822 25.42910137 91.87934901 33.26886067 36.90263034 109.69101777 39.72727643 146.43692603 6.31627216 5.10258535-4.64335362 11.96920828-11.28035923 20.59622339-19.90737435a29.17585779 29.17585779 0 0 0 7.49715669-28.35215429c-1.84786442-6.72083392-3.42602152-11.52819887-4.73082589-14.42938413-2.36541291-4.89848256-5.92264495-19.94017662-20.72378857-34.26021936-14.79749971-14.32368808-63.19188135-36.73497365-53.73751885-43.78383167 1.52348561-1.13714768 8.89672247-5.62742308 21.16115258-8.06572981 51.13519936-10.18330303 80.31105716 26.75577345 90.73855602 40.9810533 1.13714768 1.55264404 2.23420388 3.09799882 3.29481242 4.62877518 1.03509552-1.5344202 2.11392792-3.1125773 3.23285326-4.7381151 9.47623162-13.76969197 40.91909405-49.51330692 91.17592005-40.61658445 10.40198578 1.83693134 19.84541516 6.62242713 21.87551472 7.81424623 10.58786628 6.22515458-51.4741581 43.7838317-61.83969627 55.58173942s-23.0308862 28.75307221-30.01413831 54.36805262z" fill="#6ED8E6" p-id="1889" data-spm-anchor-id="a313x.7781069.0.i2" class="selected"></path><path d="M888.57171927 700.30105205c6.98325355-25.61133653 19.64860009-42.5701449 30.01049439-54.36805262s72.42756252-49.35658484 61.83969626-55.58173942c-2.0300996-1.19181762-11.47352891-5.97731492-21.8755147-7.81424623-50.25682591-8.89672247-81.69968984 26.84689101-91.17592149 40.61658445-1.11892386 1.62189392-5.39051797 1.66198542-6.5276642 0.10933992-10.42385347-14.22163595-39.59971129-51.16435773-90.738556-40.9810533-12.26078478 2.43830669-19.63766698 6.93222747-21.1611526 8.06572981-9.45436249 7.04885808 38.94366447 29.46014363 53.73751886 43.78383167 14.80114363 14.32368808 18.35473031 29.36538217 20.72378708 34.26021936 1.30115898 2.90118526 2.88296139 7.70854871 4.73082732 14.42938413a29.15763397 29.15763397 0 0 1-7.49715666 28.35215429c-8.62701513 8.62701513-15.493638 15.26402068-20.59622339 19.90737435-36.74590823 33.41100284-113.16806534 30.58635817-146.436926-6.31627216-10.6133793-11.76874932-22.68099436-75.55471827-25.42910139-91.87934901C604.40506544 491.90050992 474.78480418 388.46380366 360.17343613 388.46380366h-35.47390613c-136.24633229 0-257.38172205 94.58371915-281.03585278 224.5502269-2.97772287 16.37201147-4.01281985 31.97134552-4.8328765 44.09727593s-3.83787397 35.0037398 4.8328765 59.99183181c7.72677252 22.26914338 27.43733327 38.45891822 39.25711015 46.75062145-4.77456268 12.79291174-1.55628937 23.25685816 4.26065805 40.74779204s23.355265 44.093632 33.41829356 54.9512057C169.86156085 912.72170322 248.93706354 942.45884487 347.76321849 942.45884487h179.8369957c231.44965211-6.76821611 333.24259532-138.95070389 360.97150508-242.15779282z m-25.16668327-101.12231799l0.73622982 28.70933392c3.39686455-19.69598225 3.41873229-31.29343102 0.06560453-34.78141174-5.78414516 5.70396223 0.27335272 4.47569694-0.80183435 6.07207782zM23.00184929 724.27227087c-7.19464557-20.73836703-8.26983406-38.75778398-6.47663957-62.28434955-0.03280223 0.43007484 0.4045618-5.17183527 0.48474622-6.34907442 1.41778961-21.02629821 2.50755655-32.09526535 5.13538764-46.53922792C47.57080108 469.40539458 177.13274556 366.59557817 324.69953 366.59557817h35.47390613c131.13645766 0 265.03195551 117.13714836 289.56810505 262.65196556 5.3941619 32.00414781 16.09501341 76.42580248 20.1041879 80.87234104 24.95893509 27.68517292 87.48019117 30.24740095 115.48609755 4.7818519 4.80371963-4.37000093 11.44801591-10.78467988 19.84541516-19.18936686a7.28940847 7.28940847 0 0 0 1.87702277-7.088951c-1.57451175-5.71489678-2.85744837-9.63295371-3.59003429-11.26213541-1.03874088-2.42008291-3.84880709-9.69491288-4.94221789-12.01659048a51.91516749 51.91516749 0 0 0-11.03981024-15.50457115c-2.84286996-2.75539625-8.77280264-6.87026679-20.01307036-13.96650701-16.55060121-10.42749881-21.07003505-13.4015778-26.69016889-17.90643168-4.94950861-3.96908303-8.5796344-7.65023344-11.2512023-12.25349561-6.20328688-10.70814076-4.91306096-24.49970189 6.3563651-32.89709965 6.1923523-4.61784058 17.11917582-9.42520555 29.9594683-11.98014284 28.79680759-5.73676449 54.64505067 0.0364476 76.81943109 14.44760791a120.10029279 120.10029279 0 0 1 21.54749067 17.82624869 126.30722503 126.30722503 0 0 1 21.90102768-17.32692401c22.32016801-13.89725716 48.07729352-19.76523071 76.25450195-14.77927591 11.02523031 1.95356191 22.37848329 6.51673111 29.14669939 10.49674724 12.99701457 7.6429442 14.66264534 21.80626484 8.97690551 32.96270569-2.29251915 4.49756465-5.55817324 8.38646467-10.04480478 12.68357036-5.70031688 5.47434631-13.29588033 11.50268584-24.6782917 19.91466356l-3.44789062 2.53671493c-23.14022758 16.9588084-25.56759969 18.79573972-27.29518964 20.76388006-12.28629781 13.98837474-20.39576445 27.53574006-25.34527306 45.68636612-16.78021858 62.4811646-54.80541667 122.6880338-111.43318614 168.49467583-67.61655223 54.6924314-158.03072941 86.49612025-269.99239871 89.769065L347.76321849 964.32706893c-103.63716376 0-188.99249246-31.39548171-243.20746685-89.91120719-13.48176081-14.55330396-31.78182116-43.83850163-38.12725169-62.91123939-5.81694747-17.48729145-8.52131909-28.35944357-7.84340314-38.70675938-16.24444626-13.47082621-28.89521436-29.24510622-35.58324752-48.5255921z" fill="#524F75" p-id="1890"></path><path d="M66.81119404 672.75073206m-10.93411272 0a10.93411275 10.93411275 0 1 0 21.86822548 0 10.93411275 10.93411275 0 1 0-21.86822548 0Z" fill="#646092" p-id="1891"></path><path d="M372.96634791 424.91084614m-10.93411277 0a10.93411275 10.93411275 0 1 0 21.86822548 0 10.93411275 10.93411275 0 1 0-21.86822548 0Z" fill="#646092" p-id="1892"></path><path d="M453.14984133 501.44963532m-10.93411275 0a10.93411275 10.93411275 0 1 0 21.86822405 0 10.93411275 10.93411275 0 1 0-21.86822405 0Z" fill="#646092" p-id="1893"></path><path d="M445.86043284 450.42377587m-7.2894085 0a7.28940847 7.28940847 0 1 0 14.57881699 0 7.28940847 7.28940847 0 1 0-14.57881699 0Z" fill="#646092" p-id="1894"></path><path d="M522.39922057 530.60726787m-7.28940848 0a7.28940847 7.28940847 0 1 0 14.57881697 0 7.28940847 7.28940847 0 1 0-14.57881697 0Z" fill="#646092" p-id="1895"></path><path d="M329.22989691 406.68732492m-7.28940847 0a7.28940847 7.28940847 0 1 0 14.57881698 0 7.28940847 7.28940847 0 1 0-14.57881698 0Z" fill="#646092" p-id="1896"></path><path d="M557.0239102 525.14021218m-9.1117599 0a9.11175989 9.11175989 0 1 0 18.22352124 0 9.11175989 9.11175989 0 1 0-18.22352124 0Z" fill="#646092" p-id="1897"></path><path d="M582.53683995 587.10018296m-9.11175993 0a9.11175989 9.11175989 0 1 0 18.22352129 0 9.11175989 9.11175989 0 1 0-18.22352129 0Z" fill="#646092" p-id="1898"></path><path d="M819.44261455 732.88835139m-5.46705708 0a5.46705564 5.46705564 0 1 0 10.9341127 0 5.46705564 5.46705564 0 1 0-10.9341127 0Z" fill="#646092" p-id="1899"></path><path d="M608.04976965 670.92838065m-9.1117599 0a9.11175989 9.11175989 0 1 0 18.22351983 0 9.11175989 9.11175989 0 1 0-18.22351983 0Z" fill="#646092" p-id="1900"></path><path d="M223.53347523 432.20025461m-7.28940851 1e-8a7.28940847 7.28940847 0 1 0 14.57881699 0 7.28940847 7.28940847 0 1 0-14.57881699 0Z" fill="#646092" p-id="1901"></path><path d="M106.90294075 712.84247874m-7.28940848 0a7.28940847 7.28940847 0 1 0 14.57881698 0 7.28940847 7.28940847 0 1 0-14.57881698 0Z" fill="#646092" p-id="1902"></path><path d="M631.74034654 727.42129574m-7.28940848 0a7.28940847 7.28940847 0 1 0 14.57881699 0 7.28940847 7.28940847 0 1 0-14.57881699 0Z" fill="#646092" p-id="1903"></path><path d="M744.7261782 774.80245097m-7.28940847 0a7.28940847 7.28940847 0 1 0 14.57881699 0 7.28940847 7.28940847 0 1 0-14.57881699 0Z" fill="#646092" p-id="1904"></path><path d="M70.45589827 618.08016979m-7.28940849 0a7.28940847 7.28940847 0 1 0 14.57881702 0 7.28940847 7.28940847 0 1 0-14.57881702 0Z" fill="#646092" p-id="1905"></path><path d="M61.34413841 714.66483159m-5.46705709 0a5.46705564 5.46705564 0 1 0 10.93411272 0 5.46705564 5.46705564 0 1 0-10.93411272 0Z" fill="#646092" p-id="1906"></path><path d="M94.14647518 543.36373346m-5.46705564 0a5.46705564 5.46705564 0 1 0 10.93411273 0 5.46705564 5.46705564 0 1 0-10.93411273 0Z" fill="#646092" p-id="1907"></path><path d="M146.99468748 508.73904235m-3.64470429 0a3.64470426 3.64470426 0 1 0 7.2894085 0 3.64470426 3.64470426 0 1 0-7.2894085 0Z" fill="#646092" p-id="1908"></path><path d="M125.12646198 505.09433956m-3.64470421 0a3.64470426 3.64470426 0 1 0 7.28940848 0 3.64470426 3.64470426 0 1 0-7.28940848 0Z" fill="#646092" p-id="1909"></path><path d="M420.3475031 435.84495887m-3.64470423 0a3.64470426 3.64470426 0 1 0 7.2894085 0 3.64470426 3.64470426 0 1 0-7.2894085 0Z" fill="#646092" p-id="1910"></path><path d="M511.46510788 497.80493105m-3.6447043 0a3.64470426 3.64470426 0 1 0 7.28940851 0 3.64470426 3.64470426 0 1 0-7.28940851 0Z" fill="#646092" p-id="1911"></path><path d="M573.42508002 556.12019758m-3.64470424 0a3.64470426 3.64470426 0 1 0 7.2894085 0 3.64470426 3.64470426 0 1 0-7.2894085 0Z" fill="#646092" p-id="1912"></path><path d="M781.17321923 760.22363397m-3.64470426 0a3.64470426 3.64470426 0 1 0 7.28940851 0 3.64470426 3.64470426 0 1 0-7.28940851 0Z" fill="#646092" p-id="1913"></path><path d="M609.87212108 614.43546552m-3.6447028 0a3.64470426 3.64470426 0 1 0 7.28940703 0 3.64470426 3.64470426 0 1 0-7.28940703 0Z" fill="#646092" p-id="1914"></path><path d="M165.21820726 483.22611409m-3.64470425 0a3.64470426 3.64470426 0 1 0 7.28940852 0 3.64470426 3.64470426 0 1 0-7.28940852 0Z" fill="#646092" p-id="1915"></path><path d="M190.731137 457.71318436m-3.64470426 0a3.64470426 3.64470426 0 1 0 7.28940848 0 3.64470426 3.64470426 0 1 0-7.28940848 0Z" fill="#646092" p-id="1916"></path><path d="M252.69110917 446.77907165m-3.64470423 0a3.64470426 3.64470426 0 1 0 7.28940849 0 3.64470426 3.64470426 0 1 0-7.28940849 0Z" fill="#646092" p-id="1917"></path><path d="M354.74282667 439.48966313m-3.64470426 0a3.64470426 3.64470426 0 1 0 7.28940853 0 3.64470426 3.64470426 0 1 0-7.28940853 0Z" fill="#646092" p-id="1918"></path><path d="M423.99220737 417.62143765m-3.64470427 0a3.64470426 3.64470426 0 1 0 7.28940849 0 3.64470426 3.64470426 0 1 0-7.28940849 0Z" fill="#646092" p-id="1919"></path><path d="M500.5309951 454.06848014m-3.64470424 0a3.64470426 3.64470426 0 1 0 7.28940849 0 3.64470426 3.64470426 0 1 0-7.28940849 0Z" fill="#646092" p-id="1920"></path><path d="M547.9121503 505.09433956m-3.64470423 0a3.64470426 3.64470426 0 1 0 7.28940848 0 3.64470426 3.64470426 0 1 0-7.28940848 0Z" fill="#646092" p-id="1921"></path><path d="M270.91463042 410.33202911m-3.64470424 0a3.64470426 3.64470426 0 1 0 7.28940851 0 3.64470426 3.64470426 0 1 0-7.28940851 0Z" fill="#646092" p-id="1922"></path><path d="M165.21820726 461.35788862m-3.64470425 0a3.64470426 3.64470426 0 1 0 7.28940852 0 3.64470426 3.64470426 0 1 0-7.28940852 0Z" fill="#646092" p-id="1923"></path><path d="M187.08643274 490.51552258m-3.64470427 0a3.64470426 3.64470426 0 1 0 7.28940853 0 3.64470426 3.64470426 0 1 0-7.28940853 0Z" fill="#646092" p-id="1924"></path><path d="M864.62965739 762.77857127c-47.62170565 86.89703812-151.40465694 175.08065681-338.19939315 180.42379266H350.94140031c-98.76783961 0-181.08348475-31.84378033-230.31250445-83.8318416-10.05573932-10.62066855-27.45191175-36.38872717-33.26885914-53.49696841a247.01618389 247.01618389 0 0 1-7.09259489-24.75847614c81.324285 14.15238604 138.03588285 19.79803298 170.13114822 16.9332968 57.76127184-5.1463222 108.79806589-16.93329533 136.89873517-44.94284854 92.18185863 218.94102616 368.83313204 137.25227088 477.33233217 9.67304523z" fill="#FFFFFF" p-id="1925"></path><path d="M675.4767975 829.47301325c-36.15546597 56.24507544-19.08731623 91.09573701-18.30006035 113.60907614 0.78361198 22.51698306-9.85892425 54.26235657-38.03977797 57.38222311-28.17356305 3.11986652-67.42338249-17.60756594-91.31806368-50.16935367-23.89832505-32.55814246-10.71178613-76.45496084-60.09023861-107.0085168" fill="#6ED8E6" p-id="1926"></path><path d="M666.28120923 823.56130287c-24.45961038 38.0434219-28.22458916 65.81606852-22.24363029 103.27633881 2.03374489 12.73459643 2.08112566 13.09177751 2.20869083 16.62714036 0.80912499 23.25685816-10.6133793 44.17381504-28.31570671 46.13466614-24.34297978 2.69343705-59.90071426-16.61256193-81.30241733-45.7701944-6.3964566-8.71448733-9.50903387-16.96609759-14.66264532-36.15546594a555.19779198 555.19779198 0 0 0-2.76268548-10.06302855c-8.43749076-29.35080367-20.15157012-47.79665158-45.72281366-63.62195764a10.93775665 10.93775665 0 0 0-11.5063312 18.59892611c20.30829221 12.56329591 29.15034474 26.48970998 36.21378124 51.06959483 0.7508097 2.6132526 1.20639753 4.28252724 2.66063334 9.69126902 5.83881662 21.72608182 9.64753221 31.83284721 18.15427136 43.41936144 25.68423032 34.99644911 68.43661038 58.20957047 101.33735683 54.56486624 31.52669078-3.49162602 48.92286468-35.33540783 47.76020395-68.62978007-0.17130055-4.90577176-0.20774817-5.1244545-2.47111041-19.31328676-5.20463749-32.57636623-2.15766475-55.02774475 19.04357937-88.00502889a10.93411275 10.93411275 0 1 0-18.39117652-11.8234207z" fill="#524F75" p-id="1927"></path><path d="M442.21572858 818.5389005m-14.57881699 0a14.57881698 14.57881698 0 1 0 29.15763397 0 14.57881698 14.57881698 0 1 0-29.15763397 0Z" fill="#524F75" p-id="1928"></path><path d="M86.85706664 621.72487403c27.17491515 0 49.20350663-23.8436551 49.20350811-53.25277408 0-29.41276289-22.02859297-55.72752691-49.20350811-55.72752694S37.65356001 539.05933706 37.65356001 568.47209995C37.65356001 597.88121894 59.68215299 621.72487403 86.85706664 621.72487403z" fill="#FFFFFF" p-id="1929"></path><path d="M86.85706664 632.65898675C53.44241846 632.65898675 26.71944733 603.73461399 26.71944733 568.47209995c0-35.60876055 26.96352163-66.66163968 60.13761931-66.66163968s60.13761938 31.05288061 60.13762084 66.66163968C146.99468748 603.73461399 120.27171631 632.65898675 86.85706664 632.65898675z m0-21.86822548c20.93518066 0 38.26939387-18.76293744 38.26939534-42.31866132 0-24.16074467-17.91372091-44.7934142-38.26939534-44.79341423S48.58767278 544.31135672 48.58767278 568.47209995C48.58767278 592.02782386 65.92188604 610.79076127 86.85706664 610.79076127z" fill="#524F75" p-id="1930"></path><path d="M59.41973339 583.2404413C62.09130275 586.72113421 66.04580586 588.9225358 70.45589827 588.9225358c8.05115133 0 14.57881698-7.34407845 14.578817-16.40116838s-6.52766566-16.40116841-14.578817-16.40116984c-7.95274455 0-14.42209488 7.16548866-14.57881695 16.06950184l10.81019288 1.76768141-7.26754081 9.28306047z" fill="#232323" p-id="1931"></path><path d="M218.06641953 625.36957826c37.2379422 0 67.42702783-29.90115299 67.42702788-66.78556095C285.49344741 521.69961076 251.78722272 490.51552258 214.54927904 490.51552258S150.63939169 521.69961076 150.63939169 558.58401731 180.8284759 625.36957826 218.06641953 625.36957826z" fill="#FFFFFF" p-id="1932"></path><path d="M218.06641953 636.30369104c-43.25535005 0-78.36114057-34.7741225-78.36114057-77.71967373C139.70527896 514.89130315 171.93175342 479.58140985 214.54927904 479.58140985 258.11442944 479.58140985 296.42756015 515.91911096 296.42756015 558.58401731 296.42756015 601.52956708 261.32176819 636.30369104 218.06641953 636.30369104z m0-21.86822552c31.22418117 0 56.49291512-25.02818348 56.49291516-55.85144821C274.55933469 528.26372408 246.28736335 501.44963532 214.54927904 501.44963532 184.47682547 501.44963532 161.57350301 526.54706726 161.57350301 558.58401731 161.57350301 589.40728204 186.84223841 614.43546552 218.06641953 614.43546552z" fill="#524F75" p-id="1933"></path><path d="M184.62990226 577.12462807A21.86822544 21.86822544 0 1 0 201.66524973 541.5413806a21.86822544 21.86822544 0 0 0-21.84635634 22.89238787l14.55694783 2.03738879-9.74593896 10.65347081z" fill="#232323" p-id="1934"></path><path d="M323.53322543 330.29797002a10.93411275 10.93411275 0 0 0 21.55113592-3.69573035L328.50095636 229.96655181C321.32088923 196.10725035 288.68985306 174.66545434 255.49753149 181.72160309S201.20966183 221.63840241 208.31683523 255.07127441a10.93411275 10.93411275 0 1 0 21.39076852-4.54494536c-4.60690602-21.6750558 9.00241994-42.87994521 30.33122922-47.41395748 21.26320473-4.51943381 42.25670073 9.22110126 46.95107897 30.77952641l16.54695735 96.40607204z" fill="#524F75" p-id="1935"></path><path d="M282.359001 239.33344204c0.30251109 1.43236811 0.49567935 2.87202685 0.56857454 4.30439495 0.72894057 13.32139339-8.25161025 25.25780083-21.21582401 28.01319706-14.51321245 3.08706426-28.86241212-6.34178519-32.00414778-21.124705l-0.52848163-2.49297813-21.39441385 4.54494538 0.53212696 2.49662348c5.64200151 26.54438138 31.56313839 43.57608353 57.93986312 37.9668828 23.58123698-5.01146781 39.81110477-26.59176209 38.50994427-50.58849397a50.282339 50.282339 0 0 0-1.02051706-7.66481337l-21.39076847 4.5449468z" fill="#524F75" p-id="1936"></path><path d="M282.53030298 239.97491039l-0.22597195-1.05696466c-0.63782301-2.99959204-3.12351186-4.73082582-5.27024202-4.27159417-2.15037554 0.45558783-3.71759801 3.0506181-3.07977505 6.04292094l0.22597052 1.0606086a10.93411275 10.93411275 0 1 1-21.39076847 4.54494532l-0.22597201-1.0569632c-3.08342035-14.51321245 5.64564689-28.94988581 19.92559817-31.98228009 14.27995126-3.03603818 28.12253699 6.59691409 31.20960269 21.11377188l0.22597197 1.05696325a10.93411275 10.93411275 0 1 1-21.39441385 4.54859213z" fill="#524F75" p-id="1937"></path><path d="M494.48078642 173.7105418c45.31096266 9.63295371 74.11505949 54.51019627 64.40556812 100.19291991a10.93411275 10.93411275 0 0 1-21.39076847-4.54130147c7.21286941-33.92855132-14.11593991-67.15002979-47.55974648-74.26084852s-66.44295842 14.57152777-73.65218243 48.49278987l-43.28086164 131.20935145a10.93411275 10.93411275 0 0 1-20.7638801-6.85933364l42.78518234-129.50363068c9.97555486-45.33647571 54.34618494-74.31551847 99.460334-64.72994692z" fill="#524F75" p-id="1938"></path><path d="M469.50362898 254.44802988c-0.37540483 1.76403754-0.60137683 3.53536286-0.69249436 5.30668969-0.83828195 16.54695737 10.74458835 31.55220383 27.49929387 35.11307969 18.7374244 3.9836615 37.03748472-7.70854871 40.93002722-26.02318752l0.61960061-2.92669678 21.39441382 4.54494535-0.61960061 2.93034212c-6.41832428 30.19272949-36.38508182 49.34565026-66.86574252 42.86536682-27.24416358-5.7914344-46.17475765-30.31664937-44.79341562-57.60819515 0.14578753-2.93034215 0.52483773-5.84974972 1.14079301-8.74728958l21.38712458 4.54494536z" fill="#524F75" p-id="1939"></path><path d="M469.44166832 254.33868855l0.33531338-1.57451173c1.5672225-7.38052606 7.79966632-11.88173604 13.44895851-10.67898388 5.65293615 1.20275221 9.51267777 7.84704848 7.94180999 15.22393069l-0.33531334 1.5781556a10.93411275 10.93411275 0 0 0 21.3907699 4.54494685l0.33531192-1.57451172c3.9836615-18.74106975-6.81195149-37.33999436-24.78398775-41.16328988-17.97568156-3.81965013-35.40465624 8.78373721-39.38831917 27.52480695l-0.3353119 1.57451172A10.93411275 10.93411275 0 1 0 469.44166832 254.33868855z" fill="#524F75" p-id="1940"></path><path d="M409.25666822 77.9860311a21.64225349 21.56935974 90 1 0 43.13871807 0 21.64225349 21.56935974 90 1 0-43.13871807 0Z" fill="#7BFFFB" p-id="1941"></path><path d="M430.82602797 106.92133843c-15.94558056 0-28.85876824-12.96056842-28.8587682-28.931662 0-15.9747389 12.91683159-26.71932733 28.8587682-26.7193273 15.94558056 0 28.85876824 10.74458835 28.8587668 26.7193273 0 15.97109358-12.91318769 28.93166197-28.8587668 28.931662z m0-14.57881702c7.88349467 0 14.27995126-6.42196816 14.27994981-14.35284498 0-7.93452074-6.40010051-13.64941749-14.27994981-13.64941751s-14.27995126 5.71489678-14.27995121 13.64941751a14.31275347 14.31275347 0 0 0 14.27995121 14.35284498z" fill="#524F75" p-id="1942"></path><path d="M326.61300045 150.49742193a35.41559084 35.29896021 90 1 0 70.59792043 0 35.41559084 35.29896021 90 1 0-70.59792043 0Z" fill="#7BFFFB" p-id="1943"></path><path d="M361.91196067 195.02841797c-24.53250416 0-44.41072009-19.94382196-44.41072157-44.52735217s19.87457206-44.52735071 44.41072157-44.52735071 44.41072009 19.94382196 44.41072009 44.52735071-19.8782174 44.52735071-44.41072009 44.52735217z m0-20.1151225c14.45489716 0 26.18720031-9.88079341 26.18719885-24.41587354s-11.7323032-24.36120359-26.18719885-24.36120359-26.18720031 9.82612198-26.18720033 24.36120359 11.72865786 24.41587351 26.18720033 24.41587354z" fill="#524F75" p-id="1944"></path><path d="M311.20319074 30.76524327a17.70961808 17.64765745 90 1 0 35.29531489 0 17.70961808 17.64765745 90 1 0-35.29531489 0Z" fill="#7BFFFB" p-id="1945"></path><path d="M328.85084819 55.76426987c-13.78062657 0-24.94071126-11.19653089-24.94071128-24.9990266 0-13.79885036 11.16008472-22.70650743 24.94071128-22.70650737 13.77698123 0 24.93706594 8.90765708 24.93706592 22.70650737 0.00364534 13.80249426-11.15643935 24.9990266-24.93706592 24.9990266z m0-14.57881699a10.38740732 10.38740732 0 0 0 10.3582489-10.42020961A10.38740732 10.38740732 0 0 0 328.85084819 20.34867905a10.38740732 10.38740732 0 0 0-10.3618943 10.41656422 10.39469655 10.39469655 0 0 0 10.3618943 10.42020961z" fill="#524F75" p-id="1946"></path><path d="M73.3425036 779.18703032c38.42976133 16.89320385 91.51487872 23.57030239 159.40113977 20.34109306 68.37100582-3.25107559 118.53307031-16.91142766 150.54086197-41.57878477a10.93411275 10.93411275 0 1 0-13.35419561-17.31963479c-27.8236712 21.44543993-73.91824591 33.99415587-138.22905262 37.05570712-64.79919678 3.08342035-114.70248558-3.19640564-149.56408174-18.51874169a10.93411275 10.93411275 0 1 0-8.79467177 20.02036107z" fill="#524F75" p-id="1947"></path><path d="M365.0573402 738.33718469c16.47770751 0.93668872 22.20718273 5.85339508 22.48782468 22.079619a10.93411275 10.93411275 0 1 0 21.86458012-0.38633944c-0.49932467-28.67288772-16.00389586-41.99063722-43.11685029-43.52505744a10.93411275 10.93411275 0 1 0-1.23555451 21.83177788z" fill="#524F75" p-id="1948"></path><path d="M629.92163904 835.58153865c-15.81072757 17.87362941-21.94476458 49.0176276-16.79115172 76.67364212 4.81100885 25.82637395 4.00917451 35.32082789-2.46746506 38.0725803a7.28940847 7.28940847 0 1 0 5.70031831 13.41980015c8.85298712-3.76497872 13.34690638-11.42250286 14.25443822-22.16344586 0.67062525-7.85069237-0.37540483-17.06450441-3.15631414-32.00050246-4.39186864-23.56665703 0.84921652-50.17664294 13.37970863-64.34725283a7.28211923 7.28211923 0 0 0-0.63417908-10.28535665 7.27118466 7.27118466 0 0 0-10.28535516 0.63053523z" fill="#52C7D7" p-id="1949"></path><path d="M854.63587728 602.24757453c2.10663866 7.74864173 1.5672225 15.40616438-1.69843158 23.27872588a9.11540523 9.11540523 0 0 0 16.83853387 6.97596426c4.78549729-11.56464651 5.62742308-23.34797577 2.44559597-35.0365421a9.10082677 9.10082677 0 0 0-5.27024207-6.01376248c-0.84921652-0.35718104-1.79683982 1.70207691-2.72988319 1.61460464-1.05331933-0.09476292-2.09934947-2.29616306-3.18182718-2.00094266a9.10811602 9.10811602 0 0 0-6.40374582 11.18195246zM640.53137297 691.44442105c0.42643092 1.65105082 1.00229327 4.53401228 1.85150979 9.14091825 0.20774817 1.15172614 1.94627269 10.83570595 2.50755655 13.84258575 1.65105082 8.91494631 2.98865748 15.2385077 4.34813325 20.07138565 0.27699806 0.9877148 0.55763999 1.91347043 0.83828193 2.77726542a104.21667288 104.21667288 0 0 0 7.16184333 16.61620575c1.69478766 3.17453795 7.5226697 13.01159451 8.46300378 14.884972a10.94140198 10.94140198 0 0 0 14.67722381 4.86932563 10.94140198 10.94140198 0 0 0 4.86932412-14.67722384c-1.36676354-2.71894863-7.3841714-12.86945085-8.71448735-15.36242894a81.76893829 81.76893829 0 0 1-5.68938372-13.16467124c-0.1785898-0.53577083-0.36447027-1.16266073-0.56128387-1.86244437-1.1262131-4.00917451-2.36176903-9.84070186-3.89618927-18.13240226-0.54306153-2.9376314-2.2779407-12.58516361-2.5002673-13.79885032-0.93668872-5.11351993-1.58544627-8.32450403-2.17953248-10.64618157a10.93411275 10.93411275 0 0 0-21.17573257 5.44154409z" fill="#524F75" p-id="1950"></path></svg>