<?xml version="1.0" standalone="no"?><!DOCTYPE svg PUBLIC "-//W3C//DTD SVG 1.1//EN" "http://www.w3.org/Graphics/SVG/1.1/DTD/svg11.dtd"><svg t="1557403022732" class="icon" style="" viewBox="0 0 1024 1024" version="1.1" xmlns="http://www.w3.org/2000/svg" p-id="1666" xmlns:xlink="http://www.w3.org/1999/xlink" width="200" height="200"><defs><style type="text/css"></style></defs><path d="M164.85621753 828.36733969c36.49220583 61.44080774 34.14154784 95.7442181 19.52995126 120.17413054s-20.55629527 54.09086673 6.48178024 59.08647339c27.03807552 4.99560667 97.59089938-8.53446677 123.02508447-47.27432794 25.43418507-38.7361819 10.81155209-83.51638582 60.64989893-116.89645338" fill="#ffffff" p-id="1667"></path><path d="M174.34345416 822.73164887c34.58298681 58.22566827 39.08933249 98.75335232 19.5115592 131.47862143-6.87907503 11.49945973-10.86305341 22.94373887-10.81155209 31.09562656 0.04414419 6.90850497 2.55298249 10.12364444 9.82935228 11.46635051 12.41544253 2.29547738 35.42907623-0.19864666 56.80203095-6.91218281 25.10678514-7.88702549 44.98252989-20.31350442 54.99581456-35.56518516 6.66939195-10.16043004 10.34436245-20.24728887 14.87278098-38.33153149 0.30532859-1.22131136 0.52236876-2.08947359 1.11095162-4.47691569 4.83006779-19.5520241 7.6221618-28.48746348 13.298319-39.47191306 7.63687751-14.78081473 18.61028919-27.1226846 34.44687642-37.72823142a11.0359494 11.0359494 0 0 1 12.28301142 18.33806986c-22.80762846 15.27375357-29.93317363 29.06501138-38.6000715 64.15565125-0.59594144 2.40583712-0.81298162 3.29239142-1.12934662 4.54313277-5.08389357 20.302468-9.47620169 32.3500457-17.83777245 45.08185171-13.25785411 20.19578755-37.30518746 35.2341074-66.83002991 44.51166243-24.54762929 7.71045019-51.06701533 10.57979617-67.42597133 7.55962556-18.01802704-3.32917851-27.78484159-15.84026653-27.89152205-33.03795336-0.07725197-12.80905801 5.17218196-27.90255844 13.9457603-42.56197851 14.84703029-24.81617082 11.26770383-56.98596337-19.54466552-108.87331747a11.0359494 11.0359494 0 1 1 18.97447474-11.27138311z" fill="#524F75" p-id="1668"></path><path d="M909.66139912 712.70691339c-27.98348825 104.16832513-130.72817606 237.58191623-364.32979473 244.41316927H363.81598944c-99.74658854 0-179.56225175-30.01410342-229.27920392-83.6782469-10.1567522-10.95869744-27.85473643-37.80916271-33.72954028-55.46300271s-9.11937326-28.21524415-4.30034043-41.12730333c-11.93354013-8.36892789-31.8239991-24.70949035-39.62273767-47.18604103-8.74782914-25.21714341-5.70190785-48.31538621-4.87788834-60.55057564s1.86875411-27.97981043 4.87788834-44.5079831C80.7586045 493.42995779 203.02220863 397.9653176 340.53749351 397.9653176h35.80429819c115.67881982 0 246.50632068 104.40007955 270.50215273 246.69761022 2.77370196 16.47667286 14.95003293 80.85672143 25.6659395 92.73508242 33.57871565 37.24632903 110.71264309 40.09728295 147.80079038 6.37509977 5.15010913-4.68660027 12.08068545-11.38542069 20.7880497-20.09278493a29.44759194 29.44759194 0 0 0 7.56698267-28.61621676c-1.86507482-6.78342951-3.45793029-11.63556866-4.77488717-14.56377455-2.38744358-4.94410535-5.97780649-20.12589273-20.91680299-34.57930752-14.93531869-14.45709411-63.78042931-37.07711086-54.23801208-44.19161961 1.53767489-1.14773869 8.97958356-5.67983502 21.3582405-8.14085128 51.61145546-10.27814689 81.0590474 27.00496772 91.58366442 41.36273704 1.14773869 1.56710483 2.25501249 3.12685255 3.32549922 4.67188602 1.04473606-1.54871129 2.13361631-3.14156679 3.26296295-4.78224429 9.56449007-13.89793827 41.30020079-49.97445725 92.02510196-40.99487369 10.49886639 1.85403987 20.03024867 6.6841062 22.0792559 7.8870255 10.68647809 6.28313359-51.95357111 44.19161961-62.41565043 56.09940906s-23.24538814 29.02086866-30.29367984 54.87441839z" fill="#ffffff" p-id="1669"></path><path d="M909.66139912 712.70691339c7.04829319-25.84987191 19.83160054-42.96662896 30.290002-54.87441839s73.10212852-49.81627549 62.41565045-56.09940906c-2.04900723-1.20291783-11.58038953-6.03298562-22.07925592-7.8870255-50.72490115-8.97958356-82.46061334 27.09693394-92.0251034 40.99487369-1.12934515 1.63699969-5.44072347 1.67746458-6.58846069 0.11035827-10.52093775-14.35409148-39.96852969-51.64088542-91.58366445-41.36273704-12.37497763 2.46101626-19.82056562 6.99679188-21.35824049 8.14085128-9.54241723 7.11450876 39.30637268 29.73452549 54.23801209 44.19161961 14.93899651 14.45709411 18.52568011 29.63888147 20.91680149 34.57930752 1.31327757 2.92820589 2.90981236 7.78034358 4.77488867 14.56377455a29.42919839 29.42919839 0 0 1-7.56698267 28.61621676c-8.70736423 8.70736423-15.63794057 15.40618466-20.78804972 20.09278493-37.08814727 33.7221817-114.22207472 30.87122925-147.80079036-6.37509977-10.71222876-11.87835951-22.89223756-76.25840957-25.66593951-92.73508242C622.84811239 502.36539863 492.02061151 397.9653176 376.3417917 397.9653176h-35.80429819c-137.51528487 0-259.77888902 95.46464019-283.65332637 226.64161235-3.00545638 16.52449487-4.05019393 32.2691159-4.87788834 44.5079831s-3.87361863 35.32975291 4.87788834 60.55057564c7.79873709 22.4765507 27.69287539 38.81711169 39.62273767 47.18604103-4.81903137 12.91206063-1.57078413 23.47346476 4.30034043 41.12730333s23.57278807 44.50430531 33.72954028 55.46300271C184.2574155 927.10597924 264.06940089 957.12008266 363.81598944 957.12008266h181.51193714c233.60529647-6.83125301 336.34630498-140.24484413 364.33347254-244.41316927z m-25.40107732-102.06413727l0.74308678 28.97672299c3.42850182-19.87942404 3.45057318-31.58488754 0.06621555-35.1053541-5.83801678 5.75708699 0.27589861 4.51738209-0.80930233 6.12863111zM36.02990188 736.9013921c-7.26165408-20.93151723-8.34685652-39.11876097-6.53696084-62.86444505-0.03310778 0.43408039 0.40832972-5.22000398 0.48926099-6.40820757 1.43099443-21.22213008 2.53091111-32.39418989 5.18321692-46.97267868C60.82768061 479.66077132 191.59632157 375.89341881 340.53749351 375.89341881h35.80429819c132.35781865 0 267.50037417 118.22812445 292.26504514 265.09821778 5.4444013 32.30222368 16.24491695 77.13760675 20.29143159 81.62555889 25.19139423 27.94302335 88.29495231 30.52911508 116.56169629 4.8263885 4.84845984-4.41070165 11.55463888-10.88512476 20.03024866-19.36809023a7.35729959 7.35729959 0 0 0 1.89450478-7.1549751c-1.58917619-5.7681234-2.8840617-9.72267182-3.62347066-11.36702717-1.04841537-2.44262271-3.88465357-9.78520809-4.98824807-12.12850896a52.39868791 52.39868791 0 0 0-11.14263132-15.64897552c-2.86934746-2.78105908-8.85450959-6.93425414-20.19946538-14.0965864-16.70474799-10.52461705-21.26627429-13.52639561-26.93875219-18.07320617-4.99560667-4.00604973-8.65954222-7.72148514-11.35599222-12.3676205-6.26106222-10.80787279-4.95881961-24.72788389 6.41556616-33.20349224 6.2500258-4.66084962 17.27861808-9.51298875 30.23850074-12.09172186 29.06501138-5.79019476 55.15399634 0.03678707 77.53490152 14.58216809a121.21886661 121.21886661 0 0 1 21.7481767 17.99227639 127.48360812 127.48360812 0 0 1 22.10500656-17.48830116c22.52805054-14.02669155 48.52506928-19.94931741 76.96471074-14.91692515 11.12791559 1.97175674 22.58690898 6.57742575 29.41816198 10.59451041 13.11806442 7.71412802 14.79920829 22.00936107 9.06051336 33.26970926-2.31387092 4.53945345-5.60994018 8.4645734-10.13835868 12.8017009-5.75340769 5.52533254-13.4197137 11.60981799-24.908137 20.10014206l-3.48000313 2.56034104c-23.35574788 17.11675702-25.80572773 18.97079691-27.54940789 20.95726789-12.40072828 14.11865775-20.58572375 27.79219871-25.58133041 46.11187357-16.9365039 63.06309318-55.31585591 123.83070897-112.47103747 170.06397869-68.24631009 55.20181835-159.50257458 87.30171609-272.50701724 90.60514393L363.81598944 979.19198c-104.60240553 0-190.75270507-31.68788869-245.47261957-90.74860999-13.6073254-14.68884854-32.07782637-44.24679874-38.4823561-63.49717354-5.87112455-17.65016221-8.6006838-28.62357387-7.91645397-39.06726115-16.3957416-13.59628899-29.16433472-29.51748529-35.91465792-48.97754322z" fill="#524F75" p-id="1670"></path><path d="M80.24727213 684.89999899m-11.0359494 0a11.0359494 11.0359494 0 1 0 22.07189882 0 11.0359494 11.0359494 0 1 0-22.07189882 0Z" fill="#646092" p-id="1671"></path><path d="M389.25385234 434.75181559m-11.0359494 0a11.0359494 11.0359494 0 1 0 22.07189879 0 11.0359494 11.0359494 0 1 0-22.07189879 0Z" fill="#646092" p-id="1672"></path><path d="M470.18414792 512.00346136m-11.03594941 0a11.0359494 11.0359494 0 1 0 22.07189734 0 11.0359494 11.0359494 0 1 0-22.07189734 0Z" fill="#646092" p-id="1673"></path><path d="M462.82684832 460.50236418m-7.35729959 0a7.35729959 7.35729959 0 1 0 14.71459919 0 7.35729959 7.35729959 0 1 0-14.71459919 0Z" fill="#646092" p-id="1674"></path><path d="M540.07849263 541.43265828m-7.35729959 0a7.35729959 7.35729959 0 1 0 14.71459919 0 7.35729959 7.35729959 0 1 0-14.71459919 0Z" fill="#646092" p-id="1675"></path><path d="M345.11005474 416.35856658m-7.35729959 0a7.35729959 7.35729959 0 1 0 14.7145992 0 7.35729959 7.35729959 0 1 0-14.7145992 0Z" fill="#646092" p-id="1676"></path><path d="M575.025665 535.91468433m-9.19662376 0a9.19662375 9.19662375 0 1 0 18.39324898 0 9.19662375 9.19662375 0 1 0-18.39324898 0Z" fill="#646092" p-id="1677"></path><path d="M600.77621359 598.45172943m-9.19662376 0a9.19662375 9.19662375 0 1 0 18.39324899 0 9.19662375 9.19662375 0 1 0-18.39324899 0Z" fill="#646092" p-id="1678"></path><path d="M839.88844908 745.59771993m-5.51797547 0a5.51797396 5.51797396 0 1 0 11.03594941 0 5.51797396 5.51797396 0 1 0-11.03594941 0Z" fill="#646092" p-id="1679"></path><path d="M626.52676218 683.06067482m-9.19662377 0a9.19662375 9.19662375 0 1 0 18.39324752 0 9.19662375 9.19662375 0 1 0-18.39324752 0Z" fill="#646092" p-id="1680"></path><path d="M238.42921205 442.10911519m-7.35729961 0a7.35729959 7.35729959 0 1 0 14.71459919 0 7.35729959 7.35729959 0 1 0-14.71459919 0Z" fill="#646092" p-id="1681"></path><path d="M120.71241993 725.36514679m-7.35729961 0a7.35729959 7.35729959 0 1 0 14.71459922 0 7.35729959 7.35729959 0 1 0-14.71459922 0Z" fill="#646092" p-id="1682"></path><path d="M650.43798516 740.07974597m-7.35729962 0a7.35729959 7.35729959 0 1 0 14.71459921 0 7.35729959 7.35729959 0 1 0-14.71459921 0Z" fill="#646092" p-id="1683"></path><path d="M764.47612892 787.90219335m-7.3572996 0a7.35729959 7.35729959 0 1 0 14.71459921 0 7.35729959 7.35729959 0 1 0-14.71459921 0Z" fill="#646092" p-id="1684"></path><path d="M83.92592193 629.72025347m-7.35729958 0a7.35729959 7.35729959 0 1 0 14.7145992 0 7.35729959 7.35729959 0 1 0-14.7145992 0Z" fill="#646092" p-id="1685"></path><path d="M74.72929817 727.20447242m-5.51797544 0a5.51797396 5.51797396 0 1 0 11.0359494 0 5.51797396 5.51797396 0 1 0-11.0359494 0Z" fill="#646092" p-id="1686"></path><path d="M107.8371449 554.30793333m-5.51797395 0a5.51797396 5.51797396 0 1 0 11.03594937 0 5.51797396 5.51797396 0 1 0-11.03594937 0Z" fill="#646092" p-id="1687"></path><path d="M161.17756774 519.3607595m-3.67864981 0a3.67864981 3.67864981 0 1 0 7.3572996 0 3.67864981 3.67864981 0 1 0-7.3572996 0Z" fill="#646092" p-id="1688"></path><path d="M139.10566893 515.68211116m-3.67864979 0a3.67864981 3.67864981 0 1 0 7.35729958 0 3.67864981 3.67864981 0 1 0-7.35729958 0Z" fill="#646092" p-id="1689"></path><path d="M437.07629973 445.78776498m-3.67864981 0a3.67864981 3.67864981 0 1 0 7.35729961 0 3.67864981 3.67864981 0 1 0-7.35729961 0Z" fill="#646092" p-id="1690"></path><path d="M529.04254324 508.32481158m-3.67864981 0a3.67864981 3.67864981 0 1 0 7.35729961 0 3.67864981 3.67864981 0 1 0-7.35729961 0Z" fill="#646092" p-id="1691"></path><path d="M591.57958983 567.18320689m-3.67864981 0a3.67864981 3.67864981 0 1 0 7.3572996 0 3.67864981 3.67864981 0 1 0-7.3572996 0Z" fill="#646092" p-id="1692"></path><path d="M801.26262543 773.18759417m-3.67864978 0a3.67864981 3.67864981 0 1 0 7.3572996 0 3.67864981 3.67864981 0 1 0-7.3572996 0Z" fill="#646092" p-id="1693"></path><path d="M628.36608636 626.04160367m-3.67864834 0a3.67864981 3.67864981 0 1 0 7.35729812 0 3.67864981 3.67864981 0 1 0-7.35729812 0Z" fill="#646092" p-id="1694"></path><path d="M179.57081525 493.61021237m-3.6786498 0a3.67864981 3.67864981 0 1 0 7.3572996 0 3.67864981 3.67864981 0 1 0-7.3572996 0Z" fill="#646092" p-id="1695"></path><path d="M205.32136385 467.85966377m-3.67864981 0a3.67864981 3.67864981 0 1 0 7.35729961 0 3.67864981 3.67864981 0 1 0-7.35729961 0Z" fill="#646092" p-id="1696"></path><path d="M267.85841042 456.82371439m-3.67864979 0a3.67864981 3.67864981 0 1 0 7.35729961 0 3.67864981 3.67864981 0 1 0-7.35729961 0Z" fill="#646092" p-id="1697"></path><path d="M370.86060333 449.46641477m-3.67864978 0a3.67864981 3.67864981 0 1 0 7.35729958 0 3.67864981 3.67864981 0 1 0-7.35729958 0Z" fill="#646092" p-id="1698"></path><path d="M440.75494953 427.39451598m-3.6786498 0a3.67864981 3.67864981 0 1 0 7.35729959 0 3.67864981 3.67864981 0 1 0-7.35729959 0Z" fill="#646092" p-id="1699"></path><path d="M518.00659384 464.18101398m-3.67864979 0a3.67864981 3.67864981 0 1 0 7.35729958 0 3.67864981 3.67864981 0 1 0-7.35729958 0Z" fill="#646092" p-id="1700"></path><path d="M565.82904124 515.68211116m-3.67864981 0a3.67864981 3.67864981 0 1 0 7.3572996 0 3.67864981 3.67864981 0 1 0-7.3572996 0Z" fill="#646092" p-id="1701"></path><path d="M286.25165943 420.03721639m-3.67864981 0a3.67864981 3.67864981 0 1 0 7.35729961 0 3.67864981 3.67864981 0 1 0-7.35729961 0Z" fill="#646092" p-id="1702"></path><path d="M179.57081525 471.53831358m-3.6786498 0a3.67864981 3.67864981 0 1 0 7.3572996 0 3.67864981 3.67864981 0 1 0-7.3572996 0Z" fill="#646092" p-id="1703"></path><path d="M201.64271404 500.96751196m-3.6786498 0a3.67864981 3.67864981 0 1 0 7.35729961 0 3.67864981 3.67864981 0 1 0-7.35729961 0Z" fill="#646092" p-id="1704"></path><path d="M885.49634889 775.7663273c-48.06523823 87.70636799-152.8147891 176.7112993-341.34926878 182.10419926H367.02377178c-99.68773013 0-182.77003556-32.14036262-232.45755778-84.6126232-10.14939508-10.71958589-27.70758963-36.72763956-33.57871417-53.99522122a249.31680971 249.31680971 0 0 1-7.15865295-24.98906828c82.08171211 14.28419665 139.32150274 19.98242521 171.71569262 17.09100785 58.29924094-5.19425332 109.81137456-17.09100637 138.17376406-45.36143113 93.04040953 220.9801694 372.26832003 138.53059247 481.77804533 9.76313672z" fill="#FFFFFF" p-id="1705"></path><path d="M694.58178274 843.08193889c-36.49220583 56.76892319-19.26508906 91.94417215-18.47050098 114.66719298 0.79091027 22.72669867-9.95074698 54.76773796-38.39406772 57.91666188-28.43596217 3.14892391-68.05134126-17.7715569-92.16856945-50.63661422-24.12090603-32.86137805-10.81155209-77.1670367-60.64989895-108.00515818" fill="#ffffff" p-id="1706"></path><path d="M685.30054988 837.11516883c-24.687419 38.39774555-28.48746348 66.42905727-22.45080004 104.23821999 2.05268654 12.85320221 2.10050854 13.2137099 2.22926183 16.78199996 0.81666093 23.47346476-10.71222876 44.58523509-28.5794297 46.56434897-24.56970213 2.71852283-60.45860939-16.76728573-82.05964073-46.19648266-6.45603105-8.79565117-9.59759785-17.12411413-14.79920829-36.49220586a560.36871785 560.36871785 0 0 0-2.78841619-10.1567522c-8.51607469-29.62416723-20.33925508-48.24181353-46.14866065-64.21451116a11.03962723 11.03962723 0 0 0-11.61349728 18.77215025c20.49743684 12.6803062 29.42184127 26.73642622 36.55106427 51.5452399 0.7578025 2.63759155 1.21763356 4.32241325 2.68541355 9.78153026 5.89319738 21.92843127 9.73738606 32.12932767 18.32335415 43.82375479 25.92344459 35.3223943 69.07400596 58.75171487 102.28117895 55.07306507 31.8203198-3.52414586 49.3785158-35.66450995 48.20502648-69.26897479-0.17289601-4.95146247-0.20968308-5.17218196-2.49412551-19.4931642-5.25311177-32.87977159-2.17776052-55.5402547 19.22094486-88.8246782a11.0359494 11.0359494 0 1 0-18.5624657-11.93354012z" fill="#524F75" p-id="1707"></path><path d="M459.14819851 832.04598949m-14.71459919 0a14.71459921 14.71459921 0 1 0 29.4291984 0 14.71459921 14.71459921 0 1 0-29.4291984 0Z" fill="#524F75" p-id="1708"></path><path d="M100.4798453 633.39890328c27.42801317 0 49.66177156-24.06572688 49.66177303-53.74875255 0-29.68670349-22.23375986-56.24655441-49.66177303-56.24655443S50.81807374 549.96344724 50.81807374 579.65015073C50.81807374 609.33317638 73.0518336 633.39890328 100.4798453 633.39890328z" fill="#FFFFFF" p-id="1709"></path><path d="M100.4798453 644.43485267C66.75398432 644.43485267 39.78212436 615.241088 39.78212436 579.65015073c0-35.94040859 27.21465082-67.28250381 60.69772094-67.28250383s60.69772096 31.3420967 60.69772244 67.28250383C161.17756774 615.241088 134.20570777 644.43485267 100.4798453 644.43485267z m0-22.07189879c21.13016388 0 38.62582217-18.93768912 38.62582363-42.71280315 0-24.38576971-18.08056332-45.21060501-38.62582363-45.21060504S61.85402315 555.26438248 61.85402315 579.65015073C61.85402315 603.42526475 79.34968142 622.36295388 100.4798453 622.36295388z" fill="#524F75" p-id="1710"></path><path d="M72.78696991 594.55603944C75.48342138 598.06915038 79.4747554 600.29105508 83.92592193 600.29105508c8.12613703 0 14.71459921-7.41247874 14.7145992-16.55392337s-6.58846218-16.55392336-14.7145992-16.55392482c-8.02681373 0-14.55641743 7.23222561-14.7145992 16.21916777l10.91087542 1.78414503-7.33522824 9.36951975z" fill="#232323" p-id="1711"></path><path d="M232.91123808 637.07755307c37.58476391 0 68.05502054-30.17964231 68.05502055-67.40757928C300.96625863 532.4420383 266.94610546 500.96751196 229.36134009 500.96751196S164.85621753 532.4420383 164.85621753 569.66997379 195.32647269 637.07755307 232.91123808 637.07755307z" fill="#FFFFFF" p-id="1712"></path><path d="M232.91123808 648.11350247c-43.6582159 0-79.09096995-35.097997-79.09096996-78.44352868C153.82026812 525.57032039 186.34688912 489.93156258 229.36134009 489.93156258 273.33224168 489.93156258 312.00220801 526.60770082 312.00220801 569.66997379 312.00220801 613.01550399 276.56945249 648.11350247 232.91123808 648.11350247z m0-22.0718988c31.51499269 0 57.01907116-25.26128759 57.01907115-56.37162988C289.93030923 539.06728754 261.39502226 512.00346136 229.36134009 512.00346136 199.00880178 512.00346136 175.89216545 537.33464235 175.89216545 569.66997379 175.89216545 600.78031607 201.39624536 626.04160367 232.91123808 626.04160367z" fill="#524F75" p-id="1713"></path><path d="M199.16330424 588.38326561A22.07189879 22.07189879 0 1 0 216.35731325 552.46860768a22.07189879 22.07189879 0 0 0-22.04982596 23.10559992l14.69252636 2.05636434-9.83670941 10.75269367z" fill="#232323" p-id="1714"></path><path d="M339.36032636 339.25774692a11.0359494 11.0359494 0 0 0 21.75185597-3.73015113L344.37432509 237.99187555C337.12738523 203.81721992 304.1924345 182.17572222 270.69097082 189.29758956S215.8974822 229.58616057 223.07084937 263.33041511a11.0359494 11.0359494 0 1 0 21.58999493-4.58727545c-4.64981319-21.87692998 9.08626549-43.27931463 30.61372416-47.85555518 21.4612431-4.56152627 42.65026543 9.3069835 47.38836554 31.0661966l16.70107017 97.30396584z" fill="#524F75" p-id="1715"></path><path d="M297.802619 247.44600587c0.30532859 1.44570867 0.50029595 2.89877594 0.57387009 4.34448462 0.73572966 13.44546435-8.328463 25.49304351-21.4134211 28.27410257-14.64838365 3.11581613-29.13122694-6.40085045-32.30222369-21.3214534l-0.5334037-2.51619688-21.59367423 4.58727547 0.537083 2.51987616c5.69454926 26.79160684 31.85710689 43.98193653 58.47949555 38.32049358 23.80086469-5.05814292 40.18189205-26.83942884 38.86861301-51.05965821a50.75065181 50.75065181 0 0 0-1.03002182-7.73620084l-21.58999492 4.58727693z" fill="#524F75" p-id="1716"></path><path d="M297.97551647 248.09344862l-0.22807659-1.0668089c-0.64376347-3.02752923-3.1526032-4.77488719-5.31932732-4.31137832-2.17040339 0.45983103-3.75222247 3.07903054-3.10845901 6.09920264l0.22807515 1.07048673a11.0359494 11.0359494 0 1 1-21.58999494 4.58727545l-0.2280766-1.06680741c-3.1121383-14.64838365 5.69822855-29.21951532 20.11117847-32.28015232 14.41294992-3.06431483 28.38446084 6.65835552 31.50027844 21.31041847l0.22807663 1.06680742a11.0359494 11.0359494 0 1 1-21.59367423 4.59095624z" fill="#524F75" p-id="1717"></path><path d="M511.90003556 181.21191594c45.73297378 9.72267182 74.80534228 55.01788593 65.00541997 101.12608315a11.0359494 11.0359494 0 0 1-21.58999494-4.58359764c7.28004763-34.24455047-14.24741104-67.77544263-48.00270198-74.95248911s-67.0617858 14.70724209-74.33815413 48.94443543l-43.68396507 132.4313913a11.0359494 11.0359494 0 0 1-20.95726787-6.92321922l43.18366915-130.709784c10.06846383-45.75872445 54.85234706-75.00766825 100.38667415-65.33281991z" fill="#524F75" p-id="1718"></path><path d="M486.69024928 262.7013659c-0.37890124 1.7804672-0.60697787 3.56829007-0.69894408 5.35611437-0.84608941 16.70107019 10.84465986 31.84607046 27.75541312 35.44011117 18.91193846 4.02076397 37.38243943-7.78034358 41.31123573-26.26555876l0.62537137-2.95395507 21.59367424 4.58727546-0.6253714 2.95763437c-6.4781024 30.47393447-36.72396028 49.80523907-67.48850761 43.26460042-27.49790655-5.8453739-46.60481386-30.59900845-45.21060647-58.14473851 0.14714533-2.95763438 0.52972589-5.90423233 1.15141798-8.82875892l21.58631712 4.58727547z" fill="#524F75" p-id="1719"></path><path d="M486.62771154 262.59100615l0.33843636-1.58917619c1.58181907-7.4492658 7.87230977-11.99239855 13.57421764-10.77844431 5.70558567 1.21395424 9.60127567 7.92013326 8.01577728 15.36572126l-0.33843636 1.592854a11.0359494 11.0359494 0 0 0 21.58999638 4.58727694l0.33843489-1.58917621c4.02076397-18.91561777-6.87539573-37.68776654-25.01481746-41.5466709-18.14310103-3.8552251-35.73440334 8.86554601-39.75516877 27.78116375l-0.33843488 1.58917621A11.0359494 11.0359494 0 1 0 486.62771154 262.59100615z" fill="#524F75" p-id="1720"></path><path d="M425.88216858 84.59585923a21.84382219 21.77024951 90 1 0 43.54049756 0 21.84382219 21.77024951 90 1 0-43.54049756 0Z" fill="#7BFFFB" p-id="1721"></path><path d="M447.65241807 113.80066032c-16.09409232 0-29.12754912-13.08127882-29.12754912-29.20112177 0-16.12352226 13.03713461-26.96818212 29.12754912-26.96818215 16.09409232 0 29.12754912 10.84465986 29.12754765 26.96818215 0 16.11984298-13.03345679 29.20112179-29.12754765 29.20112177z m0-14.71459919c7.95691886 0 14.41294992-6.48178023 14.41294845-14.48652258 0-8.00842017-6.45970889-13.77654357-14.41294845-13.77654359s-14.41294992 5.7681234-14.41294991 13.77654359a14.4460577 14.4460577 0 0 0 14.41294991 14.48652258z" fill="#524F75" p-id="1722"></path><path d="M342.46878535 157.78259685a35.74543974 35.62772289 90 1 0 71.25544578 0 35.74543974 35.62772289 90 1 0-71.25544578 0Z" fill="#7BFFFB" p-id="1723"></path><path d="M378.09650825 202.72833967c-24.76099168 0-44.82434665-20.12957201-44.82434812-44.94206499s20.05967716-44.9420635 44.82434812-44.94206349 44.82434665 20.12957201 44.82434664 44.94206349-20.06335646 44.9420635-44.82434664 44.94206499z m0-20.30246803c14.58952522 0 26.43109911-9.97281979 26.43109765-24.64327479s-11.8415739-24.58809566-26.43109765-24.58809567-26.43109911 9.91763918-26.43109914 24.58809567 11.83789462 24.64327481 26.43109914 24.64327479z" fill="#524F75" p-id="1724"></path><path d="M326.91545388 36.9352729a17.87455952 17.8120218 90 1 0 35.62404358 0 17.87455952 17.8120218 90 1 0-35.62404358 0Z" fill="#7BFFFB" p-id="1725"></path><path d="M344.72747568 62.16713203c-13.90897469 0-25.17300069-11.30081161-25.1730007-25.23185913 0-13.92736822 11.26402601-22.91798819 25.1730007-22.9179882 13.90529539 0 25.1693214 8.99061999 25.16932139 22.9179882 0.0036793 13.93104604-11.26034671 25.23185913-25.16932139 25.23185913z m0-14.7145992a10.48415215 10.48415215 0 0 0 10.45472219-10.51725993A10.48415215 10.48415215 0 0 0 344.72747568 26.42169228a10.48415215 10.48415215 0 0 0-10.4584015 10.51358062 10.49150927 10.49150927 0 0 0 10.4584015 10.51725993z" fill="#524F75" p-id="1726"></path><path d="M86.83941213 792.32760924c38.7876832 17.05054147 92.3672176 23.78982827 160.88574847 20.53054315 69.00779041-3.28135502 119.63704752-17.06893501 151.94294904-41.9660356a11.0359494 11.0359494 0 1 0-13.47857212-17.48094403c-28.08281157 21.64517552-74.60669563 34.31076603-139.51647159 37.40083149-65.40271475 3.1121383-115.77078602-3.22617587-150.9570714-18.69121897a11.0359494 11.0359494 0 1 0-8.8765824 20.20682396z" fill="#524F75" p-id="1727"></path><path d="M381.27118283 751.09730184c16.63117534 0.94541274 22.41401298 5.90791163 22.6972687 22.28526116a11.0359494 11.0359494 0 1 0 22.06821951-0.38993767c-0.50397523-28.93993741-16.15295075-42.38172394-43.5184262-43.93043521a11.0359494 11.0359494 0 1 0-1.24706201 22.03511172z" fill="#524F75" p-id="1728"></path><path d="M648.6023388 849.24735706c-15.95798339 18.0400984-22.14915076 49.47416132-16.94753885 77.38775471 4.85581697 26.06691212 4.04651463 35.64979425-2.49044622 38.42717551a7.35729959 7.35729959 0 1 0 5.75340919 13.54478768c8.93544085-3.80004449 13.47121501-11.5288882 14.38719926-22.36986879 0.67687122-7.92381109-0.37890124-17.22343748-3.18571099-32.29854437-4.432773-23.78614899 0.85712583-50.64397138 13.50432277-64.94656154a7.34994247 7.34994247 0 0 0-0.64008564-10.38115098 7.33890607 7.33890607 0 0 0-10.38114952 0.63640778z" fill="#ffffff" p-id="1729"></path><path d="M875.40949004 613.74019873c2.1262592 7.82080993 1.58181907 15.54965219-1.71425019 23.49553608a9.20030306 9.20030306 0 0 0 16.99536235 7.04093609c4.83006779-11.67235573 5.67983502-23.56543095 2.46837338-35.36286066a9.18558881 9.18558881 0 0 0-5.31932732-6.0697727c-0.85712583-0.36050772-1.81357498 1.71792947-2.75530841 1.62964256-1.0631296-0.09564549-2.11890208-2.31754873-3.21146165-2.01957874a9.19294594 9.19294594 0 0 0-6.46338816 11.28609737zM659.31088826 703.76779475c0.43040256 1.66642817 1.01162828 4.57624051 1.8687541 9.22605371 0.20968308 1.16245294 1.96439962 10.93662607 2.53091113 13.97151095 1.66642817 8.9979771 3.01649281 15.38043402 4.38863027 20.25832378 0.27957792 0.99691404 0.56283367 1.93129185 0.84608942 2.80313194a105.18731202 105.18731202 0 0 0 7.22854631 16.77096354c1.71057236 3.20410452 7.59273333 13.13278013 8.54182537 15.02360561a11.04330651 11.04330651 0 0 0 14.81392252 4.91467686 11.04330651 11.04330651 0 0 0 4.91467542-14.81392252c-1.37949313-2.744272-7.45294511-12.98931261-8.79565116-15.50550947a82.53050673 82.53050673 0 0 1-5.74237275-13.2872826c-0.18025313-0.54076082-0.36786484-1.17348935-0.56651151-1.87979053-1.13670227-4.04651463-2.38376575-9.9323549-3.93247704-18.3012813-0.54811942-2.9649915-2.29915668-12.70237757-2.52355401-13.92736822-0.94541274-5.16114555-1.60021261-8.40203566-2.19983188-10.74533653a11.0359494 11.0359494 0 0 0-21.37295619 5.49222478z" fill="#524F75" p-id="1730"></path></svg>